<svg width="14" height="16" viewBox="0 0 14 16" fill="none" xmlns="http://www.w3.org/2000/svg">
<path d="M3.52995 2.008C3.97539 1.2321 4.66809 0.627928 5.49733 0.292065C6.32657 -0.0437969 7.24446 -0.0919609 8.1043 0.155272C8.96413 0.402506 9.71626 0.930862 10.2405 1.65588C10.7646 2.38091 11.0306 3.26074 10.9959 4.15474C10.9612 5.04873 10.6278 5.90528 10.0489 6.58747C9.47009 7.26966 8.67926 7.73809 7.80284 7.9179C6.92642 8.0977 6.01502 7.9785 5.21433 7.57934C4.41364 7.18018 3.76988 6.52411 3.38595 5.716C3.12945 5.90364 2.81976 6.00453 2.50195 6.004H2.00195V6.259C2.00195 6.449 2.07395 6.622 2.19195 6.753C2.29279 6.63901 2.42596 6.55844 2.57373 6.52202C2.72149 6.4856 2.87685 6.49507 3.01911 6.54915C3.16136 6.60322 3.28377 6.69936 3.37003 6.82474C3.45629 6.95012 3.50231 7.09881 3.50195 7.251C3.50188 7.35552 3.47996 7.45886 3.4376 7.55441C3.39524 7.64996 3.33338 7.73561 3.25599 7.80585C3.17859 7.87609 3.08737 7.92937 2.98817 7.96229C2.88897 7.99521 2.78399 8.00703 2.67995 7.997C2.22957 7.98119 1.80291 7.79116 1.48989 7.46694C1.17687 7.14273 1.00193 6.70966 1.00195 6.259V2.507C1.00195 2.37439 1.05463 2.24721 1.1484 2.15345C1.24217 2.05968 1.36934 2.007 1.50195 2.007H3.50195L3.52995 2.008ZM2.00195 5.004H2.50195C2.63456 5.004 2.76174 4.95132 2.85551 4.85755C2.94928 4.76378 3.00195 4.63661 3.00195 4.504V4.134C2.99902 4.04469 2.99902 3.95531 3.00195 3.866V3.007H2.00195V5.004Z" fill="black"/>
<path d="M0 11C0 9.887 0.903 9 2.009 9H12C12.5304 9 13.0391 9.21071 13.4142 9.58579C13.7893 9.96086 14 10.4696 14 11C14 12.691 13.167 13.966 11.865 14.797C10.583 15.614 8.855 16 7 16C5.145 16 3.417 15.614 2.135 14.797C0.833 13.967 0 12.69 0 11Z" fill="black"/>
</svg>
