<svg width="7" height="12" viewBox="0 0 7 12" fill="none" xmlns="http://www.w3.org/2000/svg">
<path d="M6.18751 0.375025H4.52001C2.39626 0.353775 2.12501 1.66815 2.12501 3.09065V4.12503H1.18751C1.14513 4.11936 1.10203 4.12355 1.06153 4.13725C1.02104 4.15096 0.984248 4.17381 0.95402 4.20404C0.923791 4.23427 0.900938 4.27106 0.887234 4.31155C0.873531 4.35204 0.869347 4.39515 0.875007 4.43752V6.31252C0.869347 6.3549 0.873531 6.39801 0.887234 6.4385C0.900938 6.47899 0.923791 6.51578 0.95402 6.54601C0.984248 6.57624 1.02104 6.59909 1.06153 6.6128C1.10203 6.6265 1.14513 6.63068 1.18751 6.62502H2.12501V11.3125C2.1198 11.355 2.12436 11.3981 2.13835 11.4385C2.15234 11.4789 2.17537 11.5156 2.20571 11.5457C2.23604 11.5759 2.27286 11.5987 2.31336 11.6124C2.35386 11.6262 2.39696 11.6305 2.43938 11.625H4.34876C4.53313 11.6463 4.68251 11.4969 4.62376 11.3125L4.62501 6.62502H6.18751C6.22988 6.63068 6.27299 6.6265 6.31348 6.6128C6.35397 6.59909 6.39077 6.57624 6.42099 6.54601C6.45122 6.51578 6.47408 6.47899 6.48778 6.4385C6.50148 6.39801 6.50567 6.3549 6.50001 6.31252V4.43752C6.50567 4.39515 6.50148 4.35204 6.48778 4.31155C6.47408 4.27106 6.45122 4.23427 6.42099 4.20404C6.39077 4.17381 6.35397 4.15096 6.31348 4.13725C6.27299 4.12355 6.22988 4.11936 6.18751 4.12503H4.62313L4.62501 3.18753C4.68563 2.78815 4.68563 2.85315 5.05626 2.87503H6.17438C6.26126 2.85565 6.35376 2.86628 6.41876 2.80315C6.48376 2.74003 6.52126 2.65377 6.49938 2.56253V0.687525C6.50515 0.645186 6.50106 0.602087 6.48744 0.561586C6.47382 0.521086 6.45103 0.484278 6.42084 0.454033C6.39066 0.423788 6.35389 0.400922 6.31342 0.387218C6.27295 0.373513 6.22986 0.369341 6.18751 0.375025ZM5.85313 2.21503L5.06938 2.18502C4.09876 2.18502 4.01751 2.7119 4.01751 3.25128L4.01501 4.43628C4.01492 4.48016 4.0235 4.52362 4.04023 4.56419C4.05697 4.60475 4.08154 4.64162 4.11254 4.67268C4.14354 4.70373 4.18036 4.72837 4.22089 4.74518C4.26143 4.762 4.30488 4.77065 4.34876 4.77065H5.87501V5.97815H4.35001C4.26143 5.97815 4.17648 6.01329 4.11379 6.07586C4.0511 6.13844 4.0158 6.22333 4.01563 6.3119L4.01501 11H2.75001V6.31252C2.75001 6.12815 2.62438 5.97878 2.43938 5.97878H1.50001V4.77128H2.43938C2.48324 4.77134 2.52667 4.76276 2.56721 4.74604C2.60775 4.72931 2.64459 4.70475 2.67563 4.67378C2.73813 4.61065 2.74938 4.52565 2.74938 4.4369V3.09002C2.74938 1.68877 3.03251 1.02128 4.51938 1.02128H5.85251V2.21503H5.85313Z" fill="#61A7F9"/>
</svg>
