<svg width="18" height="17" viewBox="0 0 18 17" fill="none" xmlns="http://www.w3.org/2000/svg">
<path d="M10.7675 6.73333C10.6112 6.5771 10.3993 6.48934 10.1783 6.48934C9.95737 6.48934 9.74545 6.5771 9.58917 6.73333L9.00001 7.32166C8.84626 7.48085 8.66236 7.60782 8.45902 7.69517C8.25568 7.78251 8.03697 7.82849 7.81568 7.83041C7.59438 7.83234 7.37491 7.79017 7.17008 7.70637C6.96526 7.62256 6.77917 7.49881 6.62268 7.34232C6.46619 7.18583 6.34244 6.99975 6.25864 6.79492C6.17484 6.59009 6.13267 6.37063 6.13459 6.14933C6.13651 5.92803 6.18249 5.70933 6.26984 5.50599C6.35719 5.30265 6.48416 5.11874 6.64334 4.965L11.335 0.271662C12.4458 0.0190175 13.6079 0.122994 14.6562 0.568808C15.7045 1.01462 16.5855 1.77958 17.1741 2.75491C17.7626 3.73023 18.0287 4.86628 17.9344 6.00152C17.8402 7.13676 17.3905 8.21339 16.6492 9.07833L14.8925 10.8575L10.7675 6.7325V6.73333ZM1.63417 1.72333C2.49647 0.861143 3.62436 0.314978 4.83547 0.173134C6.04659 0.0312901 7.27015 0.302058 8.30834 0.941662L5.46417 3.78666C4.84817 4.40144 4.49703 5.23275 4.48579 6.10296C4.47454 6.97318 4.80408 7.81329 5.40399 8.44377C6.0039 9.07426 6.8266 9.44512 7.6963 9.47712C8.566 9.50911 9.41373 9.1997 10.0583 8.615L10.1783 8.50083L13.7142 12.0358L10.1783 15.5717C9.86579 15.8841 9.44195 16.0596 9.00001 16.0596C8.55807 16.0596 8.13422 15.8841 7.82167 15.5717L1.63334 9.38333C0.617617 8.36752 0.0469971 6.98984 0.0469971 5.55333C0.0469971 4.11682 0.617617 2.73914 1.63334 1.72333H1.63417Z" fill="black"/>
</svg>
