<svg width="14" height="15" viewBox="0 0 14 15" fill="none" xmlns="http://www.w3.org/2000/svg">
<path d="M8.002 0.388007C7.72668 0.140641 7.36962 0.00379944 6.9995 0.00379944C6.62938 0.00379944 6.27232 0.140641 5.997 0.388007L0.497 5.33001C0.340623 5.47063 0.215564 5.64257 0.129942 5.83466C0.0443201 6.02675 4.81578e-05 6.2347 0 6.44501V13.5C0 13.8978 0.158035 14.2794 0.43934 14.5607C0.720644 14.842 1.10218 15 1.5 15H3.5C3.89782 15 4.27936 14.842 4.56066 14.5607C4.84196 14.2794 5 13.8978 5 13.5V9.50001C5 9.3674 5.05268 9.24022 5.14645 9.14645C5.24021 9.05268 5.36739 9.00001 5.5 9.00001H8.5C8.63261 9.00001 8.75979 9.05268 8.85355 9.14645C8.94732 9.24022 9 9.3674 9 9.50001V13.5C9 13.8978 9.15804 14.2794 9.43934 14.5607C9.72064 14.842 10.1022 15 10.5 15H12.5C12.8978 15 13.2794 14.842 13.5607 14.5607C13.842 14.2794 14 13.8978 14 13.5V6.44501C14 6.2347 13.9557 6.02675 13.8701 5.83466C13.7844 5.64257 13.6594 5.47063 13.503 5.33001L8.003 0.388007H8.002Z" fill="black"/>
</svg>
