<svg width="18" height="18" viewBox="0 0 18 18" fill="none" xmlns="http://www.w3.org/2000/svg">
<path d="M9.00004 0.875C4.51254 0.875 0.875043 4.5125 0.875043 8.99875C0.875043 10.2956 1.17879 11.5225 1.72004 12.6112L0.660043 15.7906C0.340668 16.7481 1.23004 17.67 2.19817 17.3844L5.60629 16.3825C6.67065 16.872 7.82854 17.1247 9.00004 17.1231C13.4869 17.1231 17.125 13.4856 17.125 8.99875C17.125 4.5125 13.4863 0.875 9.00004 0.875ZM5.87442 7.74937C5.87442 7.58361 5.94027 7.42464 6.05748 7.30743C6.17469 7.19022 6.33366 7.12437 6.49942 7.12437H11.4994C11.6652 7.12437 11.8241 7.19022 11.9414 7.30743C12.0586 7.42464 12.1244 7.58361 12.1244 7.74937C12.1244 7.91514 12.0586 8.07411 11.9414 8.19132C11.8241 8.30853 11.6652 8.37437 11.4994 8.37437H6.49942C6.33366 8.37437 6.17469 8.30853 6.05748 8.19132C5.94027 8.07411 5.87442 7.91514 5.87442 7.74937ZM6.49942 9.62438H10.2494C10.3331 9.62173 10.4165 9.63593 10.4946 9.66613C10.5727 9.69633 10.6439 9.74192 10.7041 9.80019C10.7642 9.85846 10.812 9.92822 10.8447 10.0053C10.8774 10.0824 10.8942 10.1653 10.8942 10.2491C10.8942 10.3328 10.8774 10.4157 10.8447 10.4928C10.812 10.5699 10.7642 10.6397 10.7041 10.6979C10.6439 10.7562 10.5727 10.8018 10.4946 10.832C10.4165 10.8622 10.3331 10.8764 10.2494 10.8737H6.49942C6.33366 10.8737 6.17469 10.8079 6.05748 10.6907C5.94027 10.5735 5.87442 10.4145 5.87442 10.2487C5.87442 10.083 5.94027 9.92402 6.05748 9.80681C6.17469 9.6896 6.33366 9.62375 6.49942 9.62375V9.62438Z" fill="black"/>
</svg>
