<svg width="20" height="20" viewBox="0 0 20 20" fill="none" xmlns="http://www.w3.org/2000/svg">
<path d="M17.1906 13.3324C17.1257 13.2543 17.0621 13.1762 16.9996 13.1008C16.1402 12.0613 15.6203 11.434 15.6203 8.49141C15.6203 6.96797 15.2558 5.71797 14.5375 4.78047C14.0078 4.08789 13.2917 3.5625 12.348 3.17422C12.3359 3.16746 12.325 3.1586 12.316 3.14805C11.9765 2.01133 11.0476 1.25 9.99995 1.25C8.9523 1.25 8.02378 2.01133 7.68433 3.14687C7.67527 3.15704 7.66458 3.16562 7.65269 3.17227C5.45034 4.07891 4.38003 5.81836 4.38003 8.49023C4.38003 11.434 3.86089 12.0613 3.00073 13.0996C2.93823 13.175 2.87456 13.2516 2.80972 13.3312C2.64222 13.5333 2.53609 13.779 2.5039 14.0394C2.47171 14.2999 2.5148 14.5641 2.62808 14.8008C2.86909 15.3086 3.38277 15.6238 3.96909 15.6238H16.0351C16.6187 15.6238 17.1289 15.309 17.3707 14.8035C17.4844 14.5668 17.5279 14.3023 17.496 14.0416C17.4641 13.7809 17.3581 13.5348 17.1906 13.3324V13.3324Z" fill="black"/>
<path d="M10 18.75C10.5645 18.7495 11.1183 18.5963 11.6027 18.3066C12.0872 18.0168 12.4841 17.6014 12.7516 17.1043C12.7642 17.0805 12.7704 17.0538 12.7696 17.0269C12.7689 16.9999 12.7612 16.9736 12.7473 16.9506C12.7333 16.9275 12.7137 16.9084 12.6902 16.8952C12.6667 16.8819 12.6402 16.875 12.6133 16.875H7.38751C7.36053 16.8749 7.33398 16.8818 7.31046 16.895C7.28693 16.9082 7.26723 16.9273 7.25326 16.9504C7.2393 16.9735 7.23155 16.9998 7.23078 17.0268C7.23 17.0537 7.23623 17.0804 7.24884 17.1043C7.51624 17.6013 7.91316 18.0167 8.39751 18.3065C8.88187 18.5962 9.43561 18.7495 10 18.75Z" fill="black"/>
</svg>
