<svg width="20" height="20" viewBox="0 0 20 20" fill="none" xmlns="http://www.w3.org/2000/svg">
<path d="M17.0056 13.6222C16.1129 12.655 15.0296 11.8831 13.8239 11.3552C12.6182 10.8272 11.3163 10.5547 10.0001 10.5547C8.68384 10.5547 7.38189 10.8272 6.1762 11.3552C4.9705 11.8831 3.88719 12.655 2.9945 13.6222C2.85667 13.7746 2.77958 13.9723 2.77783 14.1778V17.5111C2.78075 17.7302 2.86984 17.9393 3.0258 18.0932C3.18177 18.2471 3.39206 18.3334 3.61117 18.3333H16.3889C16.61 18.3333 16.8219 18.2455 16.9782 18.0893C17.1345 17.933 17.2223 17.721 17.2223 17.5V14.1667C17.2178 13.965 17.1409 13.7718 17.0056 13.6222V13.6222Z" fill="black"/>
<path d="M9.99997 9.44445C12.1477 9.44445 13.8889 7.70333 13.8889 5.55556C13.8889 3.40778 12.1477 1.66667 9.99997 1.66667C7.8522 1.66667 6.11108 3.40778 6.11108 5.55556C6.11108 7.70333 7.8522 9.44445 9.99997 9.44445Z" fill="black"/>
</svg>
