<svg width="18" height="18" viewBox="0 0 18 18" fill="none" xmlns="http://www.w3.org/2000/svg">
<path d="M10.5167 17.3333H7.48332C7.29326 17.3334 7.1089 17.2684 6.96082 17.1493C6.81274 17.0302 6.70982 16.864 6.66915 16.6783L6.32999 15.1083C5.87753 14.9101 5.44851 14.6622 5.05082 14.3692L3.51999 14.8567C3.33879 14.9145 3.14328 14.9085 2.96592 14.8398C2.78856 14.7712 2.64003 14.6439 2.54499 14.4792L1.02499 11.8533C0.930939 11.6885 0.895637 11.4965 0.924854 11.309C0.95407 11.1214 1.04608 10.9493 1.18582 10.8208L2.37332 9.73751C2.31932 9.24676 2.31932 8.75158 2.37332 8.26084L1.18582 7.18001C1.04588 7.05148 0.953747 6.87923 0.924526 6.69149C0.895304 6.50375 0.930726 6.31165 1.02499 6.14667L2.54165 3.51917C2.63669 3.35443 2.78523 3.22716 2.96259 3.15849C3.13994 3.08983 3.33545 3.08389 3.51665 3.14167L5.04749 3.62917C5.25082 3.47917 5.46249 3.33917 5.68082 3.21251C5.89165 3.09417 6.10832 2.98667 6.32999 2.89084L6.66999 1.32251C6.71046 1.13684 6.81318 0.970578 6.96111 0.851296C7.10904 0.732013 7.29329 0.666872 7.48332 0.666672H10.5167C10.7067 0.666872 10.8909 0.732013 11.0389 0.851296C11.1868 0.970578 11.2895 1.13684 11.33 1.32251L11.6733 2.89167C11.9067 2.99501 12.135 3.11084 12.3558 3.24001C12.5617 3.35917 12.7608 3.49001 12.9525 3.63084L14.4842 3.14334C14.6652 3.08577 14.8606 3.09181 15.0377 3.16047C15.2149 3.22913 15.3633 3.35628 15.4583 3.52084L16.975 6.14834C17.1683 6.48751 17.1017 6.91667 16.8142 7.18084L15.6267 8.26417C15.6807 8.75491 15.6807 9.2501 15.6267 9.74084L16.8142 10.8242C17.1017 11.0892 17.1683 11.5175 16.975 11.8567L15.4583 14.4842C15.3633 14.6489 15.2147 14.7762 15.0374 14.8448C14.86 14.9135 14.6645 14.9195 14.4833 14.8617L12.9525 14.3742C12.5551 14.667 12.1263 14.9146 11.6742 15.1125L11.33 16.6783C11.2893 16.8639 11.1866 17.0299 11.0386 17.149C10.8907 17.2682 10.7066 17.3332 10.5167 17.3333V17.3333ZM8.99665 5.66667C8.1126 5.66667 7.26475 6.01786 6.63963 6.64298C6.01451 7.2681 5.66332 8.11595 5.66332 9.00001C5.66332 9.88406 6.01451 10.7319 6.63963 11.357C7.26475 11.9821 8.1126 12.3333 8.99665 12.3333C9.88071 12.3333 10.7286 11.9821 11.3537 11.357C11.9788 10.7319 12.33 9.88406 12.33 9.00001C12.33 8.11595 11.9788 7.2681 11.3537 6.64298C10.7286 6.01786 9.88071 5.66667 8.99665 5.66667V5.66667Z" fill="black"/>
</svg>
