<svg width="11" height="10" viewBox="0 0 11 10" fill="none" xmlns="http://www.w3.org/2000/svg">
<path d="M10.4963 1.90376C10.5656 1.77543 10.6228 1.64089 10.6669 1.50188C10.6874 1.43741 10.6878 1.36825 10.6681 1.30353C10.6484 1.23881 10.6096 1.18159 10.5567 1.1394C10.5038 1.09722 10.4394 1.07207 10.3719 1.06727C10.3045 1.06247 10.2371 1.07824 10.1788 1.11251C9.85855 1.30276 9.51187 1.44451 9.15006 1.53314C8.71085 1.13674 8.14044 0.916994 7.54881 0.91626C7.22738 0.916507 6.90931 0.981655 6.61367 1.1078C6.31803 1.23394 6.05091 1.41848 5.82831 1.65036C5.60572 1.88223 5.43223 2.15667 5.31826 2.45721C5.20429 2.75775 5.15218 3.07822 5.16506 3.39938C3.75944 3.22243 2.47589 2.51117 1.58068 1.41313C1.54638 1.37154 1.50255 1.33883 1.4529 1.3178C1.40326 1.29676 1.34927 1.28802 1.29553 1.29232C1.24178 1.29661 1.18987 1.31382 1.1442 1.34247C1.09852 1.37112 1.06044 1.41037 1.03318 1.45689C0.828197 1.80871 0.716779 2.2072 0.709558 2.61432C0.702337 3.02145 0.799553 3.42363 0.991932 3.78251C0.94475 3.79047 0.899421 3.80699 0.858182 3.83126C0.807648 3.86348 0.766043 3.90791 0.737206 3.96045C0.708369 4.013 0.693229 4.07195 0.693182 4.13189C0.693182 4.84126 1.00881 5.49251 1.51756 5.93501L1.49568 5.95689C1.45727 6.00033 1.43085 6.05304 1.41901 6.10981C1.40718 6.16658 1.41034 6.22546 1.42818 6.28063C1.53427 6.61159 1.7114 6.91536 1.94719 7.17068C2.18297 7.42601 2.4717 7.62671 2.79318 7.75876C2.13293 8.08085 1.39403 8.20646 0.664432 8.12064C0.589435 8.11299 0.514021 8.13044 0.450005 8.17025C0.38599 8.21007 0.336989 8.26999 0.310682 8.34063C0.285418 8.41181 0.284944 8.48942 0.309336 8.5609C0.333728 8.63237 0.381555 8.69351 0.445057 8.73439C1.43694 9.37098 2.59084 9.70919 3.76943 9.70876C7.63193 9.70876 9.94068 6.57126 9.94068 3.53814L9.94006 3.43563C10.3144 3.14339 10.6395 2.79313 10.9032 2.39813C10.9431 2.33842 10.9627 2.26744 10.9592 2.1957C10.9556 2.12395 10.929 2.05527 10.8834 1.9998C10.8377 1.94434 10.7755 1.90505 10.7057 1.88776C10.636 1.87046 10.5626 1.87607 10.4963 1.90376ZM9.40568 3.00063C9.36033 3.03325 9.32387 3.0767 9.29963 3.12703C9.27539 3.17737 9.26415 3.23297 9.26693 3.28876C9.27068 3.37126 9.27256 3.45501 9.27256 3.53751C9.27256 6.24251 7.21443 9.04064 3.77006 9.04064C3.15575 9.04092 2.54577 8.93781 1.96568 8.73563C2.66043 8.60249 3.31308 8.30457 3.86881 7.86689C3.9229 7.82423 3.96251 7.76591 3.9822 7.6999C4.00189 7.63388 4.00071 7.56339 3.97883 7.49807C3.95694 7.43275 3.91541 7.37579 3.85992 7.33497C3.80443 7.29415 3.73768 7.27146 3.66881 7.27001C3.39932 7.26486 3.13482 7.19646 2.89663 7.0703C2.65844 6.94415 2.45323 6.76379 2.29756 6.54376C2.45568 6.53313 2.61068 6.50689 2.76131 6.46626C2.83421 6.44675 2.89834 6.40311 2.94325 6.34246C2.98815 6.28181 3.01118 6.20773 3.00857 6.13231C3.00596 6.05689 2.97786 5.98458 2.92887 5.92718C2.87988 5.86978 2.81288 5.83068 2.73881 5.81626C2.43445 5.75435 2.15264 5.61086 1.92355 5.40113C1.69445 5.19141 1.52668 4.92335 1.43818 4.62564C1.60443 4.66751 1.77506 4.69188 1.94568 4.69751C2.09256 4.69688 2.22881 4.60689 2.27443 4.46564C2.32006 4.32439 2.26631 4.16876 2.14193 4.08626C1.84785 3.89033 1.62142 3.60839 1.49356 3.27896C1.36571 2.94953 1.34265 2.58866 1.42756 2.24564C2.5132 3.35958 3.97915 4.02292 5.53256 4.10313C5.64256 4.10376 5.73881 4.06438 5.80568 3.98376C5.87256 3.90313 5.89818 3.79626 5.87443 3.69376C5.78895 3.32563 5.82719 2.9396 5.98322 2.59539C6.13925 2.25119 6.40437 1.968 6.73757 1.78966C7.07076 1.61132 7.45344 1.54777 7.8264 1.60884C8.19935 1.66992 8.54177 1.85221 8.80068 2.12751C8.83949 2.16891 8.88819 2.19976 8.9422 2.21714C8.99621 2.23453 9.05377 2.23788 9.10943 2.22688C9.21256 2.20626 9.31443 2.18251 9.41506 2.15501C9.36969 2.18897 9.32254 2.22047 9.27381 2.24938C9.209 2.28909 9.15964 2.34968 9.13388 2.42119C9.10812 2.49269 9.10749 2.57084 9.13209 2.64275C9.15669 2.71466 9.20506 2.77605 9.26922 2.81679C9.33338 2.85753 9.40951 2.8752 9.48506 2.86688L9.59881 2.85251C9.53617 2.90411 9.47175 2.95351 9.40568 3.00063Z" fill="#BE6615"/>
</svg>
