<svg width="16" height="16" viewBox="0 0 16 16" fill="none" xmlns="http://www.w3.org/2000/svg">
<path d="M14.0417 3.0375V2.79167C14.0417 2.18388 13.8002 1.60098 13.3705 1.17121C12.9407 0.741443 12.3578 0.5 11.75 0.5H2.375C2.11763 0.500043 1.86303 0.553069 1.62705 0.655776C1.39107 0.758484 1.17876 0.908673 1.00333 1.09699C0.827914 1.28531 0.69314 1.50773 0.607406 1.7504C0.521672 1.99306 0.486813 2.25078 0.505 2.5075C0.501811 2.53265 0.500141 2.55798 0.5 2.58333V12.7917C0.5 13.51 0.785341 14.1988 1.29325 14.7067C1.80116 15.2147 2.49004 15.5 3.20833 15.5H13.625C14.2328 15.5 14.8157 15.2586 15.2455 14.8288C15.6752 14.399 15.9167 13.8161 15.9167 13.2083V5.29167C15.9168 4.75604 15.7294 4.23727 15.3868 3.82548C15.0443 3.41369 14.5684 3.13489 14.0417 3.0375ZM2.375 1.75H11.75C12.325 1.75 12.7917 2.21667 12.7917 2.79167V3H2.375C2.20924 3 2.05027 2.93415 1.93306 2.81694C1.81585 2.69973 1.75 2.54076 1.75 2.375C1.75 2.20924 1.81585 2.05027 1.93306 1.93306C2.05027 1.81585 2.20924 1.75 2.375 1.75ZM11.5417 8.83333H13.2083C13.3741 8.83333 13.5331 8.89918 13.6503 9.01639C13.7675 9.1336 13.8333 9.29257 13.8333 9.45833C13.8333 9.62409 13.7675 9.78306 13.6503 9.90027C13.5331 10.0175 13.3741 10.0833 13.2083 10.0833H11.5417C11.3759 10.0833 11.2169 10.0175 11.0997 9.90027C10.9825 9.78306 10.9167 9.62409 10.9167 9.45833C10.9167 9.29257 10.9825 9.1336 11.0997 9.01639C11.2169 8.89918 11.3759 8.83333 11.5417 8.83333Z" fill="black"/>
</svg>
