<svg width="0" height="0" class="hidden">
  <symbol xmlns="http://www.w3.org/2000/svg" viewBox="0 0 14 16" id="chat">
    <path d="M3.52995 2.008C3.97539 1.2321 4.66809 0.627928 5.49733 0.292065C6.32657 -0.0437969 7.24446 -0.0919609 8.1043 0.155272C8.96413 0.402506 9.71626 0.930862 10.2405 1.65588C10.7646 2.38091 11.0306 3.26074 10.9959 4.15474C10.9612 5.04873 10.6278 5.90528 10.0489 6.58747C9.47009 7.26966 8.67926 7.73809 7.80284 7.9179C6.92642 8.0977 6.01502 7.9785 5.21433 7.57934C4.41364 7.18018 3.76988 6.52411 3.38595 5.716C3.12945 5.90364 2.81976 6.00453 2.50195 6.004H2.00195V6.259C2.00195 6.449 2.07395 6.622 2.19195 6.753C2.29279 6.63901 2.42596 6.55844 2.57373 6.52202C2.72149 6.4856 2.87685 6.49507 3.01911 6.54915C3.16136 6.60322 3.28377 6.69936 3.37003 6.82474C3.45629 6.95012 3.50231 7.09881 3.50195 7.251C3.50188 7.35552 3.47996 7.45886 3.4376 7.55441C3.39524 7.64996 3.33338 7.73561 3.25599 7.80585C3.17859 7.87609 3.08737 7.92937 2.98817 7.96229C2.88897 7.99521 2.78399 8.00703 2.67995 7.997C2.22957 7.98119 1.80291 7.79116 1.48989 7.46694C1.17687 7.14273 1.00193 6.70966 1.00195 6.259V2.507C1.00195 2.37439 1.05463 2.24721 1.1484 2.15345C1.24217 2.05968 1.36934 2.007 1.50195 2.007H3.50195L3.52995 2.008ZM2.00195 5.004H2.50195C2.63456 5.004 2.76174 4.95132 2.85551 4.85755C2.94928 4.76378 3.00195 4.63661 3.00195 4.504V4.134C2.99902 4.04469 2.99902 3.95531 3.00195 3.866V3.007H2.00195V5.004Z" ></path>
    <path d="M0 11C0 9.887 0.903 9 2.009 9H12C12.5304 9 13.0391 9.21071 13.4142 9.58579C13.7893 9.96086 14 10.4696 14 11C14 12.691 13.167 13.966 11.865 14.797C10.583 15.614 8.855 16 7 16C5.145 16 3.417 15.614 2.135 14.797C0.833 13.967 0 12.69 0 11Z"></path>
  </symbol>
  <symbol  xmlns="http://www.w3.org/2000/svg" viewBox="0 0 30 28" id="cross">
    <g filter="url(#filter0_d_5_243)">
      <path d="M23.875 4.125C19 -0.75 11 -0.75 6.125 4.125C1.25 9 1.25 17 6.125 21.875C11 26.75 18.875 26.75 23.75 21.875C28.625 17 28.75 9 23.875 4.125ZM18.5 18.25L15 14.75L11.5 18.25L9.75 16.5L13.25 13L9.75 9.5L11.5 7.75L15 11.25L18.5 7.75L20.25 9.5L16.75 13L20.25 16.5L18.5 18.25Z"></path>
    </g>
    <defs>
      <filter id="filter0_d_5_243" x="-1.53125" y="0.46875" width="33.0006" height="33.0625" filterUnits="userSpaceOnUse" color-interpolation-filters="sRGB">
        <feFlood flood-opacity="0" result="BackgroundImageFix"></feFlood>
        <feColorMatrix in="SourceAlpha" type="matrix" values="0 0 0 0 0 0 0 0 0 0 0 0 0 0 0 0 0 0 127 0" result="hardAlpha"></feColorMatrix>
        <feOffset dy="4"></feOffset>
        <feGaussianBlur stdDeviation="2"></feGaussianBlur>
        <feComposite in2="hardAlpha" operator="out"></feComposite>
        <feColorMatrix type="matrix" values="0 0 0 0 0 0 0 0 0 0 0 0 0 0 0 0 0 0 0.25 0"></feColorMatrix>
        <feBlend mode="normal" in2="BackgroundImageFix" result="effect1_dropShadow_5_243"></feBlend>
        <feBlend mode="normal" in="SourceGraphic" in2="effect1_dropShadow_5_243" result="shape"></feBlend>
      </filter>
    </defs>
  </symbol>
  <symbol  xmlns="http://www.w3.org/2000/svg" viewBox="0 0 7 12" id="facebook">
    <path d="M6.18751 0.375025H4.52001C2.39626 0.353775 2.12501 1.66815 2.12501 3.09065V4.12503H1.18751C1.14513 4.11936 1.10203 4.12355 1.06153 4.13725C1.02104 4.15096 0.984248 4.17381 0.95402 4.20404C0.923791 4.23427 0.900938 4.27106 0.887234 4.31155C0.873531 4.35204 0.869347 4.39515 0.875007 4.43752V6.31252C0.869347 6.3549 0.873531 6.39801 0.887234 6.4385C0.900938 6.47899 0.923791 6.51578 0.95402 6.54601C0.984248 6.57624 1.02104 6.59909 1.06153 6.6128C1.10203 6.6265 1.14513 6.63068 1.18751 6.62502H2.12501V11.3125C2.1198 11.355 2.12436 11.3981 2.13835 11.4385C2.15234 11.4789 2.17537 11.5156 2.20571 11.5457C2.23604 11.5759 2.27286 11.5987 2.31336 11.6124C2.35386 11.6262 2.39696 11.6305 2.43938 11.625H4.34876C4.53313 11.6463 4.68251 11.4969 4.62376 11.3125L4.62501 6.62502H6.18751C6.22988 6.63068 6.27299 6.6265 6.31348 6.6128C6.35397 6.59909 6.39077 6.57624 6.42099 6.54601C6.45122 6.51578 6.47408 6.47899 6.48778 6.4385C6.50148 6.39801 6.50567 6.3549 6.50001 6.31252V4.43752C6.50567 4.39515 6.50148 4.35204 6.48778 4.31155C6.47408 4.27106 6.45122 4.23427 6.42099 4.20404C6.39077 4.17381 6.35397 4.15096 6.31348 4.13725C6.27299 4.12355 6.22988 4.11936 6.18751 4.12503H4.62313L4.62501 3.18753C4.68563 2.78815 4.68563 2.85315 5.05626 2.87503H6.17438C6.26126 2.85565 6.35376 2.86628 6.41876 2.80315C6.48376 2.74003 6.52126 2.65377 6.49938 2.56253V0.687525C6.50515 0.645186 6.50106 0.602087 6.48744 0.561586C6.47382 0.521086 6.45103 0.484278 6.42084 0.454033C6.39066 0.423788 6.35389 0.400922 6.31342 0.387218C6.27295 0.373513 6.22986 0.369341 6.18751 0.375025ZM5.85313 2.21503L5.06938 2.18502C4.09876 2.18502 4.01751 2.7119 4.01751 3.25128L4.01501 4.43628C4.01492 4.48016 4.0235 4.52362 4.04023 4.56419C4.05697 4.60475 4.08154 4.64162 4.11254 4.67268C4.14354 4.70373 4.18036 4.72837 4.22089 4.74518C4.26143 4.762 4.30488 4.77065 4.34876 4.77065H5.87501V5.97815H4.35001C4.26143 5.97815 4.17648 6.01329 4.11379 6.07586C4.0511 6.13844 4.0158 6.22333 4.01563 6.3119L4.01501 11H2.75001V6.31252C2.75001 6.12815 2.62438 5.97878 2.43938 5.97878H1.50001V4.77128H2.43938C2.48324 4.77134 2.52667 4.76276 2.56721 4.74604C2.60775 4.72931 2.64459 4.70475 2.67563 4.67378C2.73813 4.61065 2.74938 4.52565 2.74938 4.4369V3.09002C2.74938 1.68877 3.03251 1.02128 4.51938 1.02128H5.85251V2.21503H5.85313Z" fill="#61A7F9"></path>
  </symbol>
  <symbol  xmlns="http://www.w3.org/2000/svg" viewBox="0 0 18 17" id="heart">
    <path d="M10.7675 6.73333C10.6112 6.5771 10.3993 6.48934 10.1783 6.48934C9.95737 6.48934 9.74545 6.5771 9.58917 6.73333L9.00001 7.32166C8.84626 7.48085 8.66236 7.60782 8.45902 7.69517C8.25568 7.78251 8.03697 7.82849 7.81568 7.83041C7.59438 7.83234 7.37491 7.79017 7.17008 7.70637C6.96526 7.62256 6.77917 7.49881 6.62268 7.34232C6.46619 7.18583 6.34244 6.99975 6.25864 6.79492C6.17484 6.59009 6.13267 6.37063 6.13459 6.14933C6.13651 5.92803 6.18249 5.70933 6.26984 5.50599C6.35719 5.30265 6.48416 5.11874 6.64334 4.965L11.335 0.271662C12.4458 0.0190175 13.6079 0.122994 14.6562 0.568808C15.7045 1.01462 16.5855 1.77958 17.1741 2.75491C17.7626 3.73023 18.0287 4.86628 17.9344 6.00152C17.8402 7.13676 17.3905 8.21339 16.6492 9.07833L14.8925 10.8575L10.7675 6.7325V6.73333ZM1.63417 1.72333C2.49647 0.861143 3.62436 0.314978 4.83547 0.173134C6.04659 0.0312901 7.27015 0.302058 8.30834 0.941662L5.46417 3.78666C4.84817 4.40144 4.49703 5.23275 4.48579 6.10296C4.47454 6.97318 4.80408 7.81329 5.40399 8.44377C6.0039 9.07426 6.8266 9.44512 7.6963 9.47712C8.566 9.50911 9.41373 9.1997 10.0583 8.615L10.1783 8.50083L13.7142 12.0358L10.1783 15.5717C9.86579 15.8841 9.44195 16.0596 9.00001 16.0596C8.55807 16.0596 8.13422 15.8841 7.82167 15.5717L1.63334 9.38333C0.617617 8.36752 0.0469971 6.98984 0.0469971 5.55333C0.0469971 4.11682 0.617617 2.73914 1.63334 1.72333H1.63417Z" ></path>
  </symbol>
  <symbol  xmlns="http://www.w3.org/2000/svg" viewBox="0 0 14 15" id="home">
    <path d="M8.002 0.388007C7.72668 0.140641 7.36962 0.00379944 6.9995 0.00379944C6.62938 0.00379944 6.27232 0.140641 5.997 0.388007L0.497 5.33001C0.340623 5.47063 0.215564 5.64257 0.129942 5.83466C0.0443201 6.02675 4.81578e-05 6.2347 0 6.44501V13.5C0 13.8978 0.158035 14.2794 0.43934 14.5607C0.720644 14.842 1.10218 15 1.5 15H3.5C3.89782 15 4.27936 14.842 4.56066 14.5607C4.84196 14.2794 5 13.8978 5 13.5V9.50001C5 9.3674 5.05268 9.24022 5.14645 9.14645C5.24021 9.05268 5.36739 9.00001 5.5 9.00001H8.5C8.63261 9.00001 8.75979 9.05268 8.85355 9.14645C8.94732 9.24022 9 9.3674 9 9.50001V13.5C9 13.8978 9.15804 14.2794 9.43934 14.5607C9.72064 14.842 10.1022 15 10.5 15H12.5C12.8978 15 13.2794 14.842 13.5607 14.5607C13.842 14.2794 14 13.8978 14 13.5V6.44501C14 6.2347 13.9557 6.02675 13.8701 5.83466C13.7844 5.64257 13.6594 5.47063 13.503 5.33001L8.003 0.388007H8.002Z" ></path>
  </symbol>
  <symbol  xmlns="http://www.w3.org/2000/svg" viewBox="0 0 18 18" id="messages">
    <path d="M9.00004 0.875C4.51254 0.875 0.875043 4.5125 0.875043 8.99875C0.875043 10.2956 1.17879 11.5225 1.72004 12.6112L0.660043 15.7906C0.340668 16.7481 1.23004 17.67 2.19817 17.3844L5.60629 16.3825C6.67065 16.872 7.82854 17.1247 9.00004 17.1231C13.4869 17.1231 17.125 13.4856 17.125 8.99875C17.125 4.5125 13.4863 0.875 9.00004 0.875ZM5.87442 7.74937C5.87442 7.58361 5.94027 7.42464 6.05748 7.30743C6.17469 7.19022 6.33366 7.12437 6.49942 7.12437H11.4994C11.6652 7.12437 11.8241 7.19022 11.9414 7.30743C12.0586 7.42464 12.1244 7.58361 12.1244 7.74937C12.1244 7.91514 12.0586 8.07411 11.9414 8.19132C11.8241 8.30853 11.6652 8.37437 11.4994 8.37437H6.49942C6.33366 8.37437 6.17469 8.30853 6.05748 8.19132C5.94027 8.07411 5.87442 7.91514 5.87442 7.74937ZM6.49942 9.62438H10.2494C10.3331 9.62173 10.4165 9.63593 10.4946 9.66613C10.5727 9.69633 10.6439 9.74192 10.7041 9.80019C10.7642 9.85846 10.812 9.92822 10.8447 10.0053C10.8774 10.0824 10.8942 10.1653 10.8942 10.2491C10.8942 10.3328 10.8774 10.4157 10.8447 10.4928C10.812 10.5699 10.7642 10.6397 10.7041 10.6979C10.6439 10.7562 10.5727 10.8018 10.4946 10.832C10.4165 10.8622 10.3331 10.8764 10.2494 10.8737H6.49942C6.33366 10.8737 6.17469 10.8079 6.05748 10.6907C5.94027 10.5735 5.87442 10.4145 5.87442 10.2487C5.87442 10.083 5.94027 9.92402 6.05748 9.80681C6.17469 9.6896 6.33366 9.62375 6.49942 9.62375V9.62438Z" ></path>
  </symbol>
  <symbol  xmlns="http://www.w3.org/2000/svg" viewBox="0 0 20 20" id="notifications">
    <path d="M17.1906 13.3324C17.1257 13.2543 17.0621 13.1762 16.9996 13.1008C16.1402 12.0613 15.6203 11.434 15.6203 8.49141C15.6203 6.96797 15.2558 5.71797 14.5375 4.78047C14.0078 4.08789 13.2917 3.5625 12.348 3.17422C12.3359 3.16746 12.325 3.1586 12.316 3.14805C11.9765 2.01133 11.0476 1.25 9.99995 1.25C8.9523 1.25 8.02378 2.01133 7.68433 3.14687C7.67527 3.15704 7.66458 3.16562 7.65269 3.17227C5.45034 4.07891 4.38003 5.81836 4.38003 8.49023C4.38003 11.434 3.86089 12.0613 3.00073 13.0996C2.93823 13.175 2.87456 13.2516 2.80972 13.3312C2.64222 13.5333 2.53609 13.779 2.5039 14.0394C2.47171 14.2999 2.5148 14.5641 2.62808 14.8008C2.86909 15.3086 3.38277 15.6238 3.96909 15.6238H16.0351C16.6187 15.6238 17.1289 15.309 17.3707 14.8035C17.4844 14.5668 17.5279 14.3023 17.496 14.0416C17.4641 13.7809 17.3581 13.5348 17.1906 13.3324V13.3324Z" ></path>
    <path d="M10 18.75C10.5645 18.7495 11.1183 18.5963 11.6027 18.3066C12.0872 18.0168 12.4841 17.6014 12.7516 17.1043C12.7642 17.0805 12.7704 17.0538 12.7696 17.0269C12.7689 16.9999 12.7612 16.9736 12.7473 16.9506C12.7333 16.9275 12.7137 16.9084 12.6902 16.8952C12.6667 16.8819 12.6402 16.875 12.6133 16.875H7.38751C7.36053 16.8749 7.33398 16.8818 7.31046 16.895C7.28693 16.9082 7.26723 16.9273 7.25326 16.9504C7.2393 16.9735 7.23155 16.9998 7.23078 17.0268C7.23 17.0537 7.23623 17.0804 7.24884 17.1043C7.51624 17.6013 7.91316 18.0167 8.39751 18.3065C8.88187 18.5962 9.43561 18.7495 10 18.75Z" ></path>
  </symbol>
  <symbol  xmlns="http://www.w3.org/2000/svg" viewBox="0 0 20 20" id="profile">
    <path d="M17.0056 13.6222C16.1129 12.655 15.0296 11.8831 13.8239 11.3552C12.6182 10.8272 11.3163 10.5547 10.0001 10.5547C8.68384 10.5547 7.38189 10.8272 6.1762 11.3552C4.9705 11.8831 3.88719 12.655 2.9945 13.6222C2.85667 13.7746 2.77958 13.9723 2.77783 14.1778V17.5111C2.78075 17.7302 2.86984 17.9393 3.0258 18.0932C3.18177 18.2471 3.39206 18.3334 3.61117 18.3333H16.3889C16.61 18.3333 16.8219 18.2455 16.9782 18.0893C17.1345 17.933 17.2223 17.721 17.2223 17.5V14.1667C17.2178 13.965 17.1409 13.7718 17.0056 13.6222V13.6222Z" ></path>
    <path d="M9.99997 9.44445C12.1477 9.44445 13.8889 7.70333 13.8889 5.55556C13.8889 3.40778 12.1477 1.66667 9.99997 1.66667C7.8522 1.66667 6.11108 3.40778 6.11108 5.55556C6.11108 7.70333 7.8522 9.44445 9.99997 9.44445Z" ></path>
  </symbol>
  <symbol  xmlns="http://www.w3.org/2000/svg" viewBox="0 0 18 18" id="settings">
    <path d="M10.5167 17.3333H7.48332C7.29326 17.3334 7.1089 17.2684 6.96082 17.1493C6.81274 17.0302 6.70982 16.864 6.66915 16.6783L6.32999 15.1083C5.87753 14.9101 5.44851 14.6622 5.05082 14.3692L3.51999 14.8567C3.33879 14.9145 3.14328 14.9085 2.96592 14.8398C2.78856 14.7712 2.64003 14.6439 2.54499 14.4792L1.02499 11.8533C0.930939 11.6885 0.895637 11.4965 0.924854 11.309C0.95407 11.1214 1.04608 10.9493 1.18582 10.8208L2.37332 9.73751C2.31932 9.24676 2.31932 8.75158 2.37332 8.26084L1.18582 7.18001C1.04588 7.05148 0.953747 6.87923 0.924526 6.69149C0.895304 6.50375 0.930726 6.31165 1.02499 6.14667L2.54165 3.51917C2.63669 3.35443 2.78523 3.22716 2.96259 3.15849C3.13994 3.08983 3.33545 3.08389 3.51665 3.14167L5.04749 3.62917C5.25082 3.47917 5.46249 3.33917 5.68082 3.21251C5.89165 3.09417 6.10832 2.98667 6.32999 2.89084L6.66999 1.32251C6.71046 1.13684 6.81318 0.970578 6.96111 0.851296C7.10904 0.732013 7.29329 0.666872 7.48332 0.666672H10.5167C10.7067 0.666872 10.8909 0.732013 11.0389 0.851296C11.1868 0.970578 11.2895 1.13684 11.33 1.32251L11.6733 2.89167C11.9067 2.99501 12.135 3.11084 12.3558 3.24001C12.5617 3.35917 12.7608 3.49001 12.9525 3.63084L14.4842 3.14334C14.6652 3.08577 14.8606 3.09181 15.0377 3.16047C15.2149 3.22913 15.3633 3.35628 15.4583 3.52084L16.975 6.14834C17.1683 6.48751 17.1017 6.91667 16.8142 7.18084L15.6267 8.26417C15.6807 8.75491 15.6807 9.2501 15.6267 9.74084L16.8142 10.8242C17.1017 11.0892 17.1683 11.5175 16.975 11.8567L15.4583 14.4842C15.3633 14.6489 15.2147 14.7762 15.0374 14.8448C14.86 14.9135 14.6645 14.9195 14.4833 14.8617L12.9525 14.3742C12.5551 14.667 12.1263 14.9146 11.6742 15.1125L11.33 16.6783C11.2893 16.8639 11.1866 17.0299 11.0386 17.149C10.8907 17.2682 10.7066 17.3332 10.5167 17.3333V17.3333ZM8.99665 5.66667C8.1126 5.66667 7.26475 6.01786 6.63963 6.64298C6.01451 7.2681 5.66332 8.11595 5.66332 9.00001C5.66332 9.88406 6.01451 10.7319 6.63963 11.357C7.26475 11.9821 8.1126 12.3333 8.99665 12.3333C9.88071 12.3333 10.7286 11.9821 11.3537 11.357C11.9788 10.7319 12.33 9.88406 12.33 9.00001C12.33 8.11595 11.9788 7.2681 11.3537 6.64298C10.7286 6.01786 9.88071 5.66667 8.99665 5.66667V5.66667Z" ></path>
  </symbol>
  <symbol  xmlns="http://www.w3.org/2000/svg" viewBox="0 0 11 10" id="twitter">
    <path d="M10.4963 1.90376C10.5656 1.77543 10.6228 1.64089 10.6669 1.50188C10.6874 1.43741 10.6878 1.36825 10.6681 1.30353C10.6484 1.23881 10.6096 1.18159 10.5567 1.1394C10.5038 1.09722 10.4394 1.07207 10.3719 1.06727C10.3045 1.06247 10.2371 1.07824 10.1788 1.11251C9.85855 1.30276 9.51187 1.44451 9.15006 1.53314C8.71085 1.13674 8.14044 0.916994 7.54881 0.91626C7.22738 0.916507 6.90931 0.981655 6.61367 1.1078C6.31803 1.23394 6.05091 1.41848 5.82831 1.65036C5.60572 1.88223 5.43223 2.15667 5.31826 2.45721C5.20429 2.75775 5.15218 3.07822 5.16506 3.39938C3.75944 3.22243 2.47589 2.51117 1.58068 1.41313C1.54638 1.37154 1.50255 1.33883 1.4529 1.3178C1.40326 1.29676 1.34927 1.28802 1.29553 1.29232C1.24178 1.29661 1.18987 1.31382 1.1442 1.34247C1.09852 1.37112 1.06044 1.41037 1.03318 1.45689C0.828197 1.80871 0.716779 2.2072 0.709558 2.61432C0.702337 3.02145 0.799553 3.42363 0.991932 3.78251C0.94475 3.79047 0.899421 3.80699 0.858182 3.83126C0.807648 3.86348 0.766043 3.90791 0.737206 3.96045C0.708369 4.013 0.693229 4.07195 0.693182 4.13189C0.693182 4.84126 1.00881 5.49251 1.51756 5.93501L1.49568 5.95689C1.45727 6.00033 1.43085 6.05304 1.41901 6.10981C1.40718 6.16658 1.41034 6.22546 1.42818 6.28063C1.53427 6.61159 1.7114 6.91536 1.94719 7.17068C2.18297 7.42601 2.4717 7.62671 2.79318 7.75876C2.13293 8.08085 1.39403 8.20646 0.664432 8.12064C0.589435 8.11299 0.514021 8.13044 0.450005 8.17025C0.38599 8.21007 0.336989 8.26999 0.310682 8.34063C0.285418 8.41181 0.284944 8.48942 0.309336 8.5609C0.333728 8.63237 0.381555 8.69351 0.445057 8.73439C1.43694 9.37098 2.59084 9.70919 3.76943 9.70876C7.63193 9.70876 9.94068 6.57126 9.94068 3.53814L9.94006 3.43563C10.3144 3.14339 10.6395 2.79313 10.9032 2.39813C10.9431 2.33842 10.9627 2.26744 10.9592 2.1957C10.9556 2.12395 10.929 2.05527 10.8834 1.9998C10.8377 1.94434 10.7755 1.90505 10.7057 1.88776C10.636 1.87046 10.5626 1.87607 10.4963 1.90376ZM9.40568 3.00063C9.36033 3.03325 9.32387 3.0767 9.29963 3.12703C9.27539 3.17737 9.26415 3.23297 9.26693 3.28876C9.27068 3.37126 9.27256 3.45501 9.27256 3.53751C9.27256 6.24251 7.21443 9.04064 3.77006 9.04064C3.15575 9.04092 2.54577 8.93781 1.96568 8.73563C2.66043 8.60249 3.31308 8.30457 3.86881 7.86689C3.9229 7.82423 3.96251 7.76591 3.9822 7.6999C4.00189 7.63388 4.00071 7.56339 3.97883 7.49807C3.95694 7.43275 3.91541 7.37579 3.85992 7.33497C3.80443 7.29415 3.73768 7.27146 3.66881 7.27001C3.39932 7.26486 3.13482 7.19646 2.89663 7.0703C2.65844 6.94415 2.45323 6.76379 2.29756 6.54376C2.45568 6.53313 2.61068 6.50689 2.76131 6.46626C2.83421 6.44675 2.89834 6.40311 2.94325 6.34246C2.98815 6.28181 3.01118 6.20773 3.00857 6.13231C3.00596 6.05689 2.97786 5.98458 2.92887 5.92718C2.87988 5.86978 2.81288 5.83068 2.73881 5.81626C2.43445 5.75435 2.15264 5.61086 1.92355 5.40113C1.69445 5.19141 1.52668 4.92335 1.43818 4.62564C1.60443 4.66751 1.77506 4.69188 1.94568 4.69751C2.09256 4.69688 2.22881 4.60689 2.27443 4.46564C2.32006 4.32439 2.26631 4.16876 2.14193 4.08626C1.84785 3.89033 1.62142 3.60839 1.49356 3.27896C1.36571 2.94953 1.34265 2.58866 1.42756 2.24564C2.5132 3.35958 3.97915 4.02292 5.53256 4.10313C5.64256 4.10376 5.73881 4.06438 5.80568 3.98376C5.87256 3.90313 5.89818 3.79626 5.87443 3.69376C5.78895 3.32563 5.82719 2.9396 5.98322 2.59539C6.13925 2.25119 6.40437 1.968 6.73757 1.78966C7.07076 1.61132 7.45344 1.54777 7.8264 1.60884C8.19935 1.66992 8.54177 1.85221 8.80068 2.12751C8.83949 2.16891 8.88819 2.19976 8.9422 2.21714C8.99621 2.23453 9.05377 2.23788 9.10943 2.22688C9.21256 2.20626 9.31443 2.18251 9.41506 2.15501C9.36969 2.18897 9.32254 2.22047 9.27381 2.24938C9.209 2.28909 9.15964 2.34968 9.13388 2.42119C9.10812 2.49269 9.10749 2.57084 9.13209 2.64275C9.15669 2.71466 9.20506 2.77605 9.26922 2.81679C9.33338 2.85753 9.40951 2.8752 9.48506 2.86688L9.59881 2.85251C9.53617 2.90411 9.47175 2.95351 9.40568 3.00063Z" fill="#BE6615"></path>
  </symbol>
  <symbol  xmlns="http://www.w3.org/2000/svg" viewBox="0 0 16 16" id="wallet">
    <path d="M14.0417 3.0375V2.79167C14.0417 2.18388 13.8002 1.60098 13.3705 1.17121C12.9407 0.741443 12.3578 0.5 11.75 0.5H2.375C2.11763 0.500043 1.86303 0.553069 1.62705 0.655776C1.39107 0.758484 1.17876 0.908673 1.00333 1.09699C0.827914 1.28531 0.69314 1.50773 0.607406 1.7504C0.521672 1.99306 0.486813 2.25078 0.505 2.5075C0.501811 2.53265 0.500141 2.55798 0.5 2.58333V12.7917C0.5 13.51 0.785341 14.1988 1.29325 14.7067C1.80116 15.2147 2.49004 15.5 3.20833 15.5H13.625C14.2328 15.5 14.8157 15.2586 15.2455 14.8288C15.6752 14.399 15.9167 13.8161 15.9167 13.2083V5.29167C15.9168 4.75604 15.7294 4.23727 15.3868 3.82548C15.0443 3.41369 14.5684 3.13489 14.0417 3.0375ZM2.375 1.75H11.75C12.325 1.75 12.7917 2.21667 12.7917 2.79167V3H2.375C2.20924 3 2.05027 2.93415 1.93306 2.81694C1.81585 2.69973 1.75 2.54076 1.75 2.375C1.75 2.20924 1.81585 2.05027 1.93306 1.93306C2.05027 1.81585 2.20924 1.75 2.375 1.75ZM11.5417 8.83333H13.2083C13.3741 8.83333 13.5331 8.89918 13.6503 9.01639C13.7675 9.1336 13.8333 9.29257 13.8333 9.45833C13.8333 9.62409 13.7675 9.78306 13.6503 9.90027C13.5331 10.0175 13.3741 10.0833 13.2083 10.0833H11.5417C11.3759 10.0833 11.2169 10.0175 11.0997 9.90027C10.9825 9.78306 10.9167 9.62409 10.9167 9.45833C10.9167 9.29257 10.9825 9.1336 11.0997 9.01639C11.2169 8.89918 11.3759 8.83333 11.5417 8.83333Z" ></path>
  </symbol>
</svg>